<?xml version="1.0" standalone="no"?>
<!DOCTYPE svg PUBLIC "-//W3C//DTD SVG 20010904//EN"
 "http://www.w3.org/TR/2001/REC-SVG-20010904/DTD/svg10.dtd">
<svg version="1.0" xmlns="http://www.w3.org/2000/svg"
 width="612.000000pt" height="343.000000pt" viewBox="0 0 612.000000 343.000000"
 preserveAspectRatio="xMidYMid meet">

<g transform="translate(0.000000,343.000000) scale(0.100000,-0.100000)"
fill="#000000" stroke="none">
<path d="M0 2318 l1 -1113 25 -25 c41 -38 58 -100 29 -100 -8 0 -15 6 -15 13
0 8 -9 22 -20 32 -20 18 -20 17 -20 -553 l0 -572 1869 0 c1486 0 1870 3 1874
13 4 10 6 10 6 0 1 -10 245 -13 1186 -13 l1185 0 0 454 c0 354 -3 455 -12 459
-10 4 -10 6 0 6 9 1 12 39 12 157 0 143 -1 155 -17 150 -10 -3 -30 -8 -45 -12
-18 -4 -28 -13 -28 -25 0 -10 -7 -19 -15 -19 -21 0 -19 15 8 46 19 21 32 27
60 26 l37 -1 0 119 c0 102 -2 119 -15 114 -11 -5 -15 0 -14 17 0 13 3 18 6 12
2 -7 9 -13 14 -13 5 0 9 389 9 970 l0 970 -1128 0 -1129 0 -11 -39 c-7 -21
-12 -48 -12 -60 0 -12 -4 -29 -9 -39 -6 -9 -17 -44 -26 -77 -9 -33 -20 -74
-26 -91 -5 -17 -9 -37 -9 -46 0 -9 -9 -26 -20 -39 -25 -31 -26 -14 -4 71 8 34
17 71 18 83 2 12 8 35 15 50 6 16 11 34 11 41 0 7 7 26 15 43 8 16 16 42 17
57 1 14 6 26 10 26 4 0 8 5 8 10 0 6 -63 10 -169 10 -155 0 -170 -2 -169 -17
1 -80 -38 -383 -51 -396 -8 -8 -24 49 -17 62 2 3 7 47 11 96 10 122 12 142 21
203 l7 52 -166 0 -166 0 4 -42 c13 -145 17 -356 7 -362 -7 -4 -13 3 -16 16 -5
28 -29 346 -28 371 1 15 -13 17 -162 17 l-163 0 7 -42 c11 -65 40 -199 50
-233 16 -53 23 -135 12 -135 -13 0 -19 17 -38 109 -9 42 -19 81 -23 86 -4 6
-8 26 -10 45 -2 19 -6 40 -9 45 -4 6 -7 17 -7 25 -1 8 -4 34 -9 58 l-8 42
-163 0 -164 0 14 -47 c8 -27 21 -53 30 -59 8 -6 12 -14 9 -17 -6 -6 15 -71 57
-177 12 -30 23 -68 26 -85 4 -28 3 -29 -11 -12 -8 10 -29 55 -47 100 -18 45
-36 84 -41 85 -4 2 -8 17 -8 33 0 16 -8 37 -18 47 -10 10 -16 24 -14 31 2 7
-3 32 -13 57 l-17 44 -170 0 c-154 0 -168 -1 -154 -16 9 -8 16 -22 16 -29 0
-7 11 -27 25 -43 14 -17 25 -34 25 -40 0 -15 34 -72 43 -72 4 0 7 -7 7 -15 0
-8 16 -44 35 -79 34 -64 45 -103 25 -91 -6 4 -19 23 -30 43 -53 96 -71 127
-79 132 -5 3 -12 20 -16 38 -3 18 -12 38 -18 45 -7 7 -25 38 -41 70 l-28 57
-1014 0 -1014 0 0 -1112z m1720 1067 c12 -19 32 -43 46 -54 13 -10 24 -24 24
-30 0 -5 14 -26 30 -44 17 -19 30 -37 30 -41 0 -3 22 -38 49 -78 27 -40 47
-75 45 -77 -8 -8 -47 35 -87 96 -23 35 -45 63 -49 63 -4 0 -8 6 -8 13 0 7 -13
28 -30 47 -16 19 -29 40 -30 46 0 6 -14 30 -30 52 -17 23 -26 42 -21 42 5 0
19 -16 31 -35z m2475 -22 c-37 -102 -146 -333 -157 -333 -12 0 -10 15 6 52 8
18 21 49 30 70 9 20 16 40 16 45 0 7 86 182 104 211 17 28 18 0 1 -45z m358
25 c-5 -7 -16 -29 -23 -48 -8 -19 -21 -46 -31 -60 -9 -14 -46 -73 -83 -133
-37 -59 -72 -105 -76 -102 -7 4 45 110 78 161 74 112 133 194 139 194 3 0 1
-6 -4 -12z m280 -93 c-3 -9 -8 -14 -10 -11 -3 3 -2 9 2 15 9 16 15 13 8 -4z
m-3341 -47 c42 -41 110 -128 95 -123 -12 5 -68 67 -116 128 -19 24 -6 21 21
-5z m3307 0 c-7 -13 -24 -37 -38 -54 -14 -16 -37 -44 -50 -62 -40 -54 -45 -35
-5 21 35 49 94 117 101 117 2 0 -2 -10 -8 -22z m-1811 -490 c10 -10 191 -14
822 -16 l810 -3 2 -217 c4 -484 -3 -867 -15 -870 -7 -1 -300 -4 -652 -5 -372
-2 -657 -7 -680 -13 -38 -9 -39 -11 -18 -22 12 -7 35 -12 51 -12 34 0 57 -22
48 -46 -4 -10 1 -25 10 -35 21 -24 119 -26 148 -4 11 8 29 12 42 9 12 -3 25
-1 28 4 12 19 -16 25 -56 11 -32 -10 -41 -10 -47 0 -7 10 -13 10 -29 2 -34
-18 -62 -14 -62 9 0 28 43 47 73 32 12 -6 47 -13 78 -16 48 -5 59 -3 75 15 14
16 27 20 52 15 60 -9 80 -46 26 -46 -31 0 -31 -15 1 -36 14 -9 25 -20 25 -24
0 -14 -47 -17 -66 -3 -28 20 -96 16 -157 -11 -30 -14 -58 -22 -61 -19 -3 4
-12 -1 -19 -11 -11 -15 -16 -12 -48 31 -20 26 -42 58 -48 71 -7 12 -21 22 -33
22 -38 0 -98 23 -122 46 -40 41 -158 53 -274 29 -31 -7 -32 -9 -17 -25 15 -17
14 -18 -27 -25 -50 -8 -84 -24 -115 -55 -13 -11 -23 -15 -23 -9 0 7 -7 21 -17
31 -15 17 -14 19 14 28 17 6 35 22 41 35 l12 25 -490 0 -490 0 0 545 0 545
323 1 c177 0 426 0 552 -1 191 -1 233 2 250 14 24 19 67 20 83 4z m2953 -1055
l21 -21 -27 -18 c-24 -16 -29 -16 -39 -3 -6 8 -19 13 -28 11 -14 -3 -49 9 -99
34 -3 2 -21 -8 -39 -21 -41 -30 -58 -33 -29 -4 24 24 18 39 -7 18 -9 -8 -24
-14 -32 -14 -8 0 -17 -6 -19 -12 -3 -7 2 -13 11 -13 9 0 16 -4 16 -10 0 -5 -7
-10 -15 -10 -20 0 -87 -62 -105 -97 -8 -15 -24 -36 -35 -45 -19 -16 -20 -15
-26 20 -5 28 -1 48 17 83 28 57 70 108 98 120 12 5 87 8 169 6 134 -3 149 -5
168 -24z m-4511 -127 c0 -22 -54 -64 -80 -62 -28 3 -30 21 -2 22 40 1 62 15
62 40 0 14 4 22 10 19 6 -3 10 -12 10 -19z m944 2 c3 -13 6 -32 6 -44 0 -11 9
-29 19 -38 10 -9 21 -27 24 -39 2 -12 8 -31 12 -42 5 -11 -14 6 -41 38 -58 68
-97 85 -161 68 -22 -6 -46 -18 -53 -26 -17 -21 -50 -19 -50 3 0 19 -51 52 -81
52 -25 0 -24 12 2 29 13 7 24 9 28 3 10 -16 88 -23 116 -10 21 9 32 8 61 -5
57 -27 111 -17 97 19 -3 8 -1 14 5 14 5 0 12 -10 16 -22z m132 -4 c10 -12 15
-12 40 1 46 24 73 19 110 -22 36 -40 43 -73 19 -93 -13 -11 -15 -8 -15 18 0
16 -7 35 -15 42 -16 13 -105 27 -105 16 0 -4 16 -22 35 -42 19 -19 35 -39 35
-44 0 -6 -13 4 -29 22 -26 29 -35 33 -80 33 -43 0 -48 2 -35 12 9 7 22 14 28
17 18 7 -14 25 -58 33 -33 5 -37 8 -23 18 20 15 78 8 93 -11z m1820 11 c-21
-16 -32 -13 -21 4 3 6 14 11 23 11 15 -1 15 -2 -2 -15z m983 0 c23 -8 44 -14
48 -14 4 0 9 -4 11 -10 5 -16 -35 -13 -69 5 -30 15 -32 14 -70 -12 -21 -15
-39 -28 -39 -29 0 -1 11 0 25 3 28 5 33 -9 10 -28 -8 -7 -15 -19 -15 -26 0
-17 -17 -18 -23 -1 -2 6 -10 -5 -17 -25 -7 -20 -22 -39 -32 -42 -16 -4 -18
-11 -13 -43 l6 -38 -26 30 c-32 37 -38 46 -50 65 -8 13 -6 13 8 2 20 -17 37
-8 37 21 0 22 5 32 49 101 36 57 82 69 160 41z m-4926 -8 c36 -19 77 -71 77
-98 0 -13 -4 -19 -8 -14 -4 6 -19 16 -34 24 -29 15 -37 31 -16 31 7 0 3 9 -8
20 -27 27 -46 50 -41 50 3 0 16 -6 30 -13z m777 5 c0 -4 12 -13 28 -20 52 -23
101 -55 107 -70 7 -19 -13 -42 -31 -35 -10 4 -14 -3 -14 -26 0 -17 -4 -31 -10
-31 -5 0 -10 7 -10 15 0 22 -55 107 -64 98 -4 -5 -14 1 -22 12 -12 16 -18 18
-34 7 -28 -17 -26 5 3 33 22 23 47 32 47 17z m542 -20 c32 -13 37 -19 32 -39
-4 -15 0 -31 11 -43 25 -28 10 -38 -18 -13 -12 11 -36 28 -53 36 -17 9 -39 28
-49 43 -12 19 -19 23 -25 14 -6 -10 -12 -10 -29 2 -11 8 -18 17 -15 21 10 10
106 -4 146 -21z m253 19 c3 -5 1 -12 -5 -16 -5 -3 -10 1 -10 9 0 18 6 21 15 7z
m45 -15 c0 -43 10 -56 45 -56 39 0 85 -34 85 -62 0 -15 -4 -18 -17 -13 -10 5
-43 13 -73 20 l-55 12 3 40 c2 23 -1 44 -7 48 -16 9 -13 35 4 35 9 0 15 -9 15
-24z m-665 4 c3 -5 -1 -10 -9 -10 -9 0 -16 5 -16 10 0 6 4 10 9 10 6 0 13 -4
16 -10z m504 -1 c17 -6 31 -17 31 -24 0 -7 7 -18 15 -25 10 -8 15 -31 15 -66
0 -40 4 -54 14 -54 8 0 18 5 21 10 7 12 45 14 45 3 -1 -41 -13 -53 -57 -53
l-44 0 4 57 c6 75 -7 103 -47 103 -36 0 -85 29 -79 48 6 15 40 16 82 1z m2179
-1 c20 -20 14 -28 -17 -22 -18 4 -45 -1 -75 -14 -38 -17 -46 -18 -46 -6 0 37
110 70 138 42z m189 -5 c3 -7 -14 -21 -36 -32 -22 -12 -45 -29 -50 -38 -9 -15
-10 -13 -11 14 0 23 8 38 27 53 28 22 64 24 70 3z m376 11 c7 -7 -32 -74 -44
-74 -13 0 -11 54 3 68 13 13 31 16 41 6z m352 -8 c37 -16 50 -42 15 -31 -24 8
-50 -10 -50 -33 0 -22 -32 -43 -47 -30 -7 6 -13 16 -13 23 0 7 -7 16 -16 19
-31 12 -51 6 -64 -19 -7 -14 -21 -25 -31 -25 -10 0 -28 -14 -41 -30 -12 -17
-28 -28 -34 -26 -22 8 -90 -68 -108 -120 -20 -58 -63 -124 -82 -124 -15 0 -18
12 -7 24 4 3 8 16 10 27 3 17 19 61 47 129 12 27 32 59 51 80 12 13 18 34 17
59 -1 25 5 47 17 62 17 21 21 22 58 11 55 -16 162 -15 193 3 32 18 43 18 85 1z
m518 -16 c-3 -18 -17 -32 -49 -46 -24 -11 -44 -18 -44 -16 0 6 93 92 96 89 1
-1 0 -13 -3 -27z m-4838 -32 c14 -16 25 -34 25 -39 0 -6 20 -44 45 -85 50 -82
51 -84 30 -84 -16 0 -30 22 -60 95 -15 36 -27 51 -45 55 -14 3 -25 13 -25 21
0 9 -15 28 -33 43 -17 15 -30 32 -27 36 9 15 64 -11 90 -42z m3198 37 c1 -5
-10 -11 -25 -13 -16 -2 -28 1 -28 7 0 20 49 26 53 6z m-2787 -18 c23 -20 27
-31 26 -68 -1 -24 -6 -45 -10 -47 -13 -4 -1 -74 19 -106 24 -40 24 -52 -2 -59
-15 -4 -20 -11 -15 -22 3 -9 6 -28 6 -41 0 -13 6 -24 13 -24 15 0 74 -41 75
-53 2 -17 26 -77 32 -77 16 0 70 -42 65 -51 -5 -7 -13 -5 -25 6 -28 25 -107
42 -210 44 -132 3 -127 11 7 11 l111 0 -19 37 c-22 43 -37 51 -96 52 -47 1
-54 9 -23 29 24 15 25 52 6 160 -13 70 -36 112 -61 112 -7 0 -20 10 -29 23
-15 22 -16 22 -31 3 -8 -11 -15 -18 -16 -15 0 2 -2 14 -5 26 -6 34 65 76 138
82 9 0 29 -10 44 -22z m-972 -9 c8 -12 13 -25 10 -30 -7 -11 -31 8 -45 34 -14
27 16 24 35 -4z m5006 12 c0 -5 -9 -15 -20 -22 -23 -15 -27 -38 -5 -38 19 0
19 -14 0 -30 -12 -10 -16 -9 -20 6 -3 11 -13 32 -21 47 -8 16 -12 33 -8 38 7
12 74 12 74 -1z m-590 -30 c0 -25 -4 -30 -25 -30 -30 0 -35 33 -7 49 27 16 32
13 32 -19z m-3705 14 c24 -9 48 -61 33 -70 -6 -4 -14 -2 -16 4 -2 7 -9 12 -16
12 -17 0 -66 38 -66 51 0 10 40 12 65 3z m3287 -40 c32 -9 58 -22 58 -29 0 -8
3 -22 7 -32 5 -14 0 -12 -25 9 -46 39 -120 38 -181 -3 -25 -16 -48 -29 -53
-29 -5 0 -6 -9 -3 -20 4 -12 0 -31 -8 -43 -19 -29 -51 -134 -53 -174 -1 -22 3
-33 12 -33 21 0 17 -18 -5 -25 -11 -3 -22 -12 -25 -20 -4 -11 2 -15 25 -15 46
0 25 -17 -31 -25 -28 -4 -48 -11 -45 -15 6 -10 -29 -32 -48 -29 -6 1 -18 1
-25 0 -15 -1 -52 -60 -52 -83 0 -15 3 -15 28 -2 41 21 51 17 13 -7 -19 -11
-43 -30 -53 -42 l-19 -22 6 30 c4 17 16 55 28 85 18 46 29 58 62 73 22 10 52
36 67 58 l28 39 -27 6 c-25 7 -25 8 -8 15 16 6 12 8 -15 9 -39 1 -63 15 -74
44 -7 19 -6 19 12 3 11 -10 43 -20 72 -24 l52 -6 -7 34 c-9 39 -9 46 0 76 6
19 2 22 -39 28 -28 5 -46 12 -46 21 0 9 10 11 34 7 47 -7 115 24 116 53 0 12
11 29 25 38 14 10 30 28 35 42 8 21 16 24 57 24 25 0 73 -7 105 -16z m1361 -5
c4 -13 1 -19 -6 -16 -7 2 -18 -2 -25 -9 -7 -8 -10 -14 -7 -14 3 0 1 -9 -5 -20
-8 -15 -8 -20 2 -21 7 0 3 -5 -10 -11 -12 -6 -26 -8 -30 -3 -4 4 -1 10 6 12 6
3 12 20 12 39 0 20 4 33 9 30 4 -3 16 3 26 14 22 25 21 25 28 -1z m-593 -3 c0
-2 -9 -6 -20 -9 -11 -3 -18 -1 -14 4 5 9 34 13 34 5z m-416 -20 c35 -14 57
-56 29 -56 -8 0 -22 4 -32 10 -25 13 -88 -6 -117 -35 -13 -13 -26 -42 -30 -64
-5 -29 -11 -41 -23 -41 -9 0 -22 -5 -27 -10 -7 -7 -14 -3 -22 14 -10 21 -8 25
13 30 27 7 49 63 39 101 -13 51 93 83 170 51z m-1720 -32 c21 -21 20 -31 -4
-37 -25 -6 -37 -36 -19 -47 7 -5 17 -6 21 -4 4 3 8 -1 8 -9 0 -9 -9 -12 -30
-9 -38 5 -39 -10 -2 -37 26 -20 26 -20 -25 1 -29 12 -49 24 -45 27 4 4 16 23
27 44 11 20 23 37 26 37 4 0 10 11 13 25 7 29 10 30 30 9z m-874 -46 c0 -4 -4
-8 -10 -8 -5 0 -10 4 -10 9 0 5 -3 18 -6 28 -5 16 -4 16 10 -1 9 -11 16 -23
16 -28z m324 17 c-4 -8 -10 -13 -15 -10 -4 3 -6 12 -3 20 4 8 10 13 15 10 4
-3 6 -12 3 -20z m1296 4 c0 -6 -4 -7 -10 -4 -5 3 -10 11 -10 16 0 6 5 7 10 4
6 -3 10 -11 10 -16z m2069 -22 c0 -21 -1 -21 -9 -2 -12 28 -12 37 0 30 6 -3
10 -16 9 -28z m-1355 7 c3 -8 2 -12 -4 -9 -6 3 -10 10 -10 16 0 14 7 11 14 -7z
m-1697 -26 c-3 -7 -5 -2 -5 12 0 14 2 19 5 13 2 -7 2 -19 0 -25z m947 -22
c-10 -27 -29 -13 -32 25 l-3 34 21 -21 c13 -13 18 -27 14 -38z m1947 7 c-8
-15 -10 -15 -11 -2 0 17 10 32 18 25 2 -3 -1 -13 -7 -23z m-3441 -8 c7 -8 18
-15 24 -15 6 0 22 -7 35 -16 l23 -16 -29 -17 c-21 -14 -43 -17 -91 -13 -78 6
-88 21 -41 62 36 33 60 38 79 15z m240 -19 c0 -7 7 -19 15 -26 22 -18 18 -27
-14 -33 -16 -3 -36 -14 -45 -23 -9 -9 -20 -13 -24 -9 -4 4 -1 10 6 12 6 3 12
11 12 19 0 21 29 74 40 74 6 0 10 -6 10 -14z m3053 -26 c3 -10 -1 -24 -8 -30
-10 -8 -17 -5 -29 12 -12 17 -13 24 -3 30 20 13 34 9 40 -12z m-3975 -50 c-11
-22 -27 -40 -36 -40 -14 0 -14 2 0 18 9 9 13 23 11 30 -3 6 0 12 6 12 6 0 11
10 11 21 0 17 3 19 14 10 11 -9 10 -18 -6 -51z m4301 -4 c1 -42 -5 -29 -12 24
-4 30 -3 38 3 25 5 -11 9 -33 9 -49z m-4779 -30 c0 -18 -32 -1 -45 24 -23 44
-18 48 15 13 17 -18 30 -34 30 -37z m1058 17 c-2 -9 -8 -18 -15 -20 -7 -3 -9
3 -6 16 6 25 26 28 21 4z m2509 -36 c-1 -5 -18 -15 -37 -21 -60 -19 -44 -40
35 -47 65 -5 66 -6 18 -7 -32 -1 -58 -8 -68 -18 -18 -19 -17 -20 -37 26 -22
49 -13 94 20 107 22 8 31 6 50 -11 12 -11 21 -24 19 -29z m-922 33 c-3 -5 -11
-10 -16 -10 -6 0 -7 5 -4 10 3 6 11 10 16 10 6 0 7 -4 4 -10z m-680 -10 c3 -5
-1 -10 -9 -10 -8 0 -18 5 -21 10 -3 6 1 10 9 10 8 0 18 -4 21 -10z m783 -2
c-6 -18 -28 -21 -28 -4 0 9 7 16 16 16 9 0 14 -5 12 -12z m-1278 -30 c0 -5 -9
-8 -20 -8 -23 0 -26 10 -8 28 9 9 14 9 20 -1 4 -6 8 -15 8 -19z m331 -25 c30
-4 52 -18 88 -52 66 -63 133 -148 123 -155 -16 -10 -51 5 -45 20 4 10 -3 14
-22 14 -14 0 -24 4 -21 9 10 15 -4 39 -26 44 -11 3 -17 10 -14 16 4 5 2 12 -4
16 -5 3 -10 1 -10 -4 0 -6 -4 -11 -10 -11 -5 0 -10 10 -10 21 0 20 -3 21 -59
15 -46 -5 -61 -3 -71 9 -7 9 -21 13 -31 10 -30 -10 -22 14 12 34 33 20 25 37
-14 26 -14 -4 -18 -3 -9 3 7 5 12 13 11 18 -4 24 4 24 37 -1 19 -15 53 -29 75
-32z m2986 25 c-3 -8 -6 -5 -6 6 -1 11 2 17 5 13 3 -3 4 -12 1 -19z m543 12
c0 -5 -4 -10 -10 -10 -5 0 -10 5 -10 10 0 6 5 10 10 10 6 0 10 -4 10 -10z
m-2600 -25 c0 -8 8 -16 18 -18 9 -3 1 -5 -18 -6 -34 -1 -85 -12 -125 -26 -15
-5 -13 -1 8 17 33 29 34 38 5 39 -19 0 -20 2 -6 7 29 12 118 2 118 -13z
m-3064 -2 c8 -10 23 -28 32 -40 13 -17 47 -30 136 -53 66 -16 134 -40 151 -51
39 -27 108 -132 103 -156 -3 -13 -11 -5 -28 29 -20 41 -56 71 -85 73 -5 0 -17
7 -27 17 -9 9 -42 21 -75 28 -32 6 -71 15 -88 20 l-30 8 30 2 30 2 -30 10
c-16 6 -32 15 -35 19 -3 5 -30 13 -60 18 -30 5 -47 9 -37 10 21 1 23 21 2 21
-8 0 -15 5 -15 10 0 6 5 10 12 10 6 0 3 9 -7 20 -10 11 -13 20 -7 20 7 0 19
-8 28 -17z m1394 -7 c0 -3 -4 -8 -10 -11 -5 -3 -10 -1 -10 4 0 6 5 11 10 11 6
0 10 -2 10 -4z m365 -26 c18 -19 17 -20 -3 -20 -12 0 -22 -5 -22 -10 0 -6 -8
-5 -19 2 -17 10 -27 5 -77 -36 -38 -31 -60 -43 -63 -35 -2 7 8 22 22 33 121
96 131 100 162 66z m540 9 c13 -6 0 -7 -40 -3 -33 4 -62 8 -64 10 -9 8 85 2
104 -7z m1815 -24 c0 -14 -40 -34 -57 -28 -19 7 -16 23 9 44 16 14 24 16 35 8
7 -6 13 -17 13 -24z m861 -5 c4 -18 13 -36 20 -41 10 -6 9 -10 -6 -16 -19 -7
-18 -8 5 -13 20 -5 13 -8 -30 -14 -47 -7 -52 -10 -37 -19 53 -33 54 -37 7 -31
-61 9 -112 54 -60 54 11 0 37 7 56 15 38 16 38 18 17 89 -3 12 -1 17 8 14 8
-3 17 -19 20 -38z m-4198 13 c-7 -2 -19 -2 -25 0 -7 3 -2 5 12 5 14 0 19 -2
13 -5z m-422 -38 c43 -6 63 -27 95 -95 33 -71 45 -120 30 -120 -6 0 -27 37
-46 82 -41 96 -57 108 -144 108 -58 0 -59 0 -40 19 11 11 29 17 44 15 14 -2
41 -6 61 -9z m1046 -20 c13 -28 21 -33 39 -29 26 7 104 -34 104 -54 0 -10 -5
-9 -17 3 -21 22 -57 35 -95 35 -20 0 -37 8 -50 25 -11 14 -30 25 -44 25 -25 0
-33 15 -11 23 35 15 58 6 74 -28z m4217 10 c-4 -8 -11 -15 -16 -15 -6 0 -5 6
2 15 7 8 14 15 16 15 2 0 1 -7 -2 -15z m-2686 -41 c37 -8 72 -25 72 -36 0 -5
-13 -2 -30 7 -16 8 -44 15 -62 16 -18 0 -42 4 -53 9 -19 8 -19 9 3 9 16 1 26
9 30 24 l7 22 3 -22 c2 -15 12 -25 30 -29z m-2880 29 c-10 -2 -28 -2 -40 0
-13 2 -5 4 17 4 22 1 32 -1 23 -4z m2097 -13 c-3 -5 -14 -10 -23 -10 -15 0
-15 2 -2 10 20 13 33 13 25 0z m1736 -25 c17 -28 24 -33 35 -24 19 16 154 47
160 37 11 -17 -9 -28 -54 -28 -28 0 -64 -8 -87 -20 -22 -11 -40 -20 -41 -20
-1 0 -4 10 -7 21 -5 18 -11 21 -35 16 -22 -4 -34 -1 -47 13 -22 24 -12 40 26
40 23 0 34 -7 50 -35z m-3808 18 c-7 -2 -19 -2 -25 0 -7 3 -2 5 12 5 14 0 19
-2 13 -5z m5527 -18 c0 -8 -4 -16 -9 -19 -5 -3 -8 5 -7 18 1 25 16 26 16 1z
m-2474 -1 c-21 -8 -46 -20 -55 -26 -11 -9 -10 -6 3 9 17 20 39 29 76 31 8 0
-3 -6 -24 -14z m2127 -73 l28 -18 -61 -26 c-34 -15 -67 -27 -73 -27 -7 0 7 9
31 20 l43 20 -5 47 c-3 27 -2 38 2 25 4 -12 20 -31 35 -41z m-1182 -2 c-25
-20 -51 -25 -51 -10 0 5 12 19 27 31 19 15 29 18 37 10 8 -8 4 -17 -13 -31z
m-2823 -34 c-1 -33 -7 -42 -21 -29 -5 6 11 64 19 64 2 0 3 -16 2 -35z m1067
-5 c-4 -12 -22 -28 -40 -36 -19 -7 -36 -18 -40 -24 -3 -5 -18 -11 -33 -12 -53
-3 176 -16 338 -19 156 -2 151 -3 -100 -9 -285 -8 -346 -16 -456 -62 -81 -33
-118 -74 -140 -156 -9 -33 -13 -39 -13 -21 -1 14 14 55 32 90 26 53 41 70 86
96 29 18 79 37 110 44 103 20 94 25 -60 28 -85 1 -156 4 -158 7 -2 2 59 4 137
4 188 0 284 22 318 75 19 29 29 27 19 -5z m564 -8 c34 -35 44 -39 119 -50 46
-6 95 -18 110 -26 32 -18 25 -20 -14 -6 -14 6 -56 15 -91 20 -92 13 -148 38
-161 72 -14 37 -7 35 37 -10z m1051 -13 c0 -6 -4 -7 -10 -4 -5 3 -10 11 -10
16 0 6 5 7 10 4 6 -3 10 -11 10 -16z m-3245 -19 c19 -7 18 -8 -5 -13 -14 -3
-54 -8 -90 -12 -185 -16 -243 -36 -299 -102 l-32 -38 22 43 c29 54 92 85 211
102 48 7 85 17 82 22 -7 10 84 9 111 -2z m875 -4 c169 -5 259 -20 275 -47 3
-4 -11 -1 -31 7 -20 9 -62 17 -93 19 -31 2 -91 7 -133 11 -81 6 -181 -2 -173
-16 8 -13 -89 2 -100 15 -5 7 -17 15 -25 18 -8 2 12 3 45 1 33 -2 139 -6 235
-8z m2690 -16 c66 -5 29 -8 -162 -10 -137 -1 -251 -3 -255 -4 -5 -1 -28 -6
-53 -10 -25 -4 -81 -19 -125 -33 -103 -33 -160 -87 -193 -183 -17 -50 -21 -56
-17 -26 20 128 114 216 270 256 l80 20 -187 -6 c-191 -5 -220 -9 -277 -38 -18
-10 -35 -15 -37 -13 -10 10 93 49 150 57 66 10 667 2 806 -10z m849 16 c-8 -8
-162 -67 -165 -63 -2 2 31 18 73 35 73 29 102 38 92 28z m-3964 -16 c17 -4
-10 -5 -60 -2 -49 3 -92 6 -94 8 -8 7 124 2 154 -6z m1765 -20 c8 -5 11 -10 5
-10 -5 0 -17 5 -25 10 -8 5 -10 10 -5 10 6 0 17 -5 25 -10z m-1361 -20 c40
-11 90 -29 111 -40 79 -40 138 -170 145 -320 l5 -85 -14 81 c-25 151 -68 255
-118 288 -13 8 -72 31 -133 51 -60 21 -112 39 -114 41 -11 11 52 2 118 -16z
m1832 -322 c10 -19 9 -19 -15 -3 -14 10 -26 24 -26 32 0 13 3 13 16 3 8 -8 20
-22 25 -32z m66 -10 c-3 -7 -5 -2 -5 12 0 14 2 19 5 13 2 -7 2 -19 0 -25z
m-10 -150 c-2 -18 -4 -6 -4 27 0 33 2 48 4 33 2 -15 2 -42 0 -60z m-1620 -45
c-2 -16 -4 -3 -4 27 0 30 2 43 4 28 2 -16 2 -40 0 -55z m1610 -140 c-2 -16 -4
-5 -4 22 0 28 2 40 4 28 2 -13 2 -35 0 -50z m-1600 -10 c-3 -10 -5 -2 -5 17 0
19 2 27 5 18 2 -10 2 -26 0 -35z"/>
<path d="M5527 1573 c-12 -12 -7 -22 8 -17 8 4 15 10 15 15 0 11 -14 12 -23 2z"/>
<path d="M894 1509 c-8 -13 -8 -13 44 -26 45 -11 56 -3 20 14 -40 19 -57 22
-64 12z"/>
<path d="M991 1385 c1 -19 18 -51 18 -35 0 8 -4 22 -9 30 -5 8 -9 11 -9 5z"/>
<path d="M1111 1095 c0 -5 6 -19 14 -29 8 -11 15 -15 15 -10 0 6 -7 19 -15 30
-8 10 -14 15 -14 9z"/>
<path d="M2473 1135 c-8 -21 -3 -24 30 -18 25 5 26 6 10 19 -24 18 -32 17 -40
-1z"/>
<path d="M1738 853 c7 -3 16 -2 19 1 4 3 -2 6 -13 5 -11 0 -14 -3 -6 -6z"/>
</g>
</svg>
