<svg xmlns="http://www.w3.org/2000/svg" xmlns:xlink="http://www.w3.org/1999/xlink" width="500" zoomAndPan="magnify" viewBox="0 0 375 374.999991" height="500" preserveAspectRatio="xMidYMid meet" version="1.0"><defs><g/><clipPath id="2c17415a64"><path d="M 68.265625 137 L 135.765625 137 L 135.765625 205 L 68.265625 205 Z M 68.265625 137 " clip-rule="nonzero"/></clipPath></defs><g clip-path="url(#2c17415a64)"><path fill="#df0808" d="M 105.683594 190.757812 C 101.769531 194.296875 97.5 197.339844 92.875 199.882812 C 91.636719 200.609375 90.355469 201.28125 89.03125 201.898438 C 86.644531 200.910156 84.402344 199.664062 82.300781 198.15625 C 80.203125 196.652344 78.300781 194.925781 76.601562 192.984375 C 74.898438 191.039062 73.4375 188.925781 72.222656 186.648438 C 71.007812 184.367188 70.066406 181.980469 69.402344 179.484375 C 70.746094 180.316406 72.15625 181.117188 73.5625 181.851562 C 78.511719 184.53125 83.695312 186.621094 89.117188 188.125 C 94.542969 189.628906 100.0625 190.503906 105.683594 190.757812 Z M 86.46875 184.03125 C 83.894531 179.074219 81.898438 173.890625 80.484375 168.488281 C 79.066406 163.085938 78.265625 157.589844 78.078125 152.007812 C 78.078125 150.40625 78.078125 148.804688 78.078125 147.234375 C 76.53125 148.789062 75.148438 150.476562 73.933594 152.296875 C 72.714844 154.121094 71.6875 156.042969 70.847656 158.066406 C 70.007812 160.09375 69.371094 162.179688 68.9375 164.328125 C 68.507812 166.476562 68.285156 168.644531 68.28125 170.835938 C 68.277344 172.296875 68.375 173.746094 68.566406 175.191406 C 69.761719 176.003906 70.980469 176.773438 72.21875 177.496094 C 76.730469 180.222656 81.488281 182.402344 86.5 184.03125 Z M 106.292969 140.734375 C 107.667969 139.902344 109.078125 139.070312 110.519531 138.332031 C 108.039062 137.675781 105.511719 137.304688 102.945312 137.226562 C 100.378906 137.148438 97.835938 137.363281 95.320312 137.867188 C 92.800781 138.375 90.371094 139.15625 88.035156 140.21875 C 85.695312 141.28125 83.511719 142.597656 81.472656 144.160156 C 81.472656 145.601562 81.28125 147.042969 81.25 148.484375 C 81.175781 153.75 81.679688 158.957031 82.753906 164.113281 C 85.753906 159.386719 89.242188 155.050781 93.214844 151.105469 C 97.183594 147.160156 101.546875 143.703125 106.292969 140.734375 Z M 130.214844 159.628906 C 131.625 160.363281 133.03125 161.164062 134.378906 162 C 133.710938 159.5 132.769531 157.113281 131.554688 154.835938 C 130.339844 152.554688 128.878906 150.441406 127.179688 148.5 C 125.476562 146.554688 123.574219 144.832031 121.476562 143.324219 C 119.375 141.820312 117.132812 140.570312 114.746094 139.582031 C 113.421875 140.199219 112.140625 140.871094 110.902344 141.597656 C 106.28125 144.148438 102.011719 147.191406 98.09375 150.726562 C 103.714844 150.976562 109.238281 151.855469 114.660156 153.355469 C 120.082031 154.859375 125.265625 156.949219 130.214844 159.628906 Z M 125.699219 194.566406 C 127.257812 193.007812 128.648438 191.3125 129.871094 189.480469 C 131.09375 187.648438 132.128906 185.714844 132.972656 183.679688 C 133.816406 181.644531 134.453125 179.542969 134.882812 177.382812 C 135.3125 175.222656 135.527344 173.039062 135.53125 170.835938 C 135.53125 169.378906 135.4375 167.925781 135.242188 166.480469 C 134.046875 165.691406 132.828125 164.921875 131.589844 164.175781 C 127.074219 161.496094 122.3125 159.359375 117.308594 157.769531 C 119.882812 162.730469 121.878906 167.910156 123.296875 173.3125 C 124.710938 178.71875 125.511719 184.210938 125.699219 189.796875 C 125.921875 191.394531 125.921875 192.996094 125.699219 194.566406 Z M 97.519531 200.972656 C 96.140625 201.804688 94.730469 202.636719 93.289062 203.375 C 95.773438 204.03125 98.296875 204.398438 100.863281 204.476562 C 103.429688 204.554688 105.972656 204.34375 108.492188 203.835938 C 111.007812 203.332031 113.4375 202.546875 115.773438 201.484375 C 118.113281 200.421875 120.300781 199.109375 122.335938 197.546875 C 122.335938 196.105469 122.527344 194.664062 122.5625 193.222656 C 122.632812 187.957031 122.132812 182.746094 121.054688 177.59375 C 118.054688 182.316406 114.566406 186.644531 110.59375 190.585938 C 106.621094 194.523438 102.261719 197.976562 97.519531 200.941406 Z M 97.519531 200.972656 " fill-opacity="1" fill-rule="nonzero"/></g><g fill="#df0808" fill-opacity="1"><g transform="translate(234.296341, 183.562591)"><g><path d="M 9.65625 -19.703125 L 9.65625 -14.15625 L 20.796875 -14.15625 L 20.796875 -8.640625 L 9.65625 -8.640625 L 9.65625 0 L 2.515625 0 L 2.515625 -25.21875 L 22.296875 -25.21875 L 22.296875 -19.703125 Z M 9.65625 -19.703125 "/></g></g></g><g fill="#df0808" fill-opacity="1"><g transform="translate(253.898975, 183.562591)"><g><path d="M 2.203125 -26.734375 L 9.046875 -26.734375 L 9.046875 0 L 2.203125 0 Z M 2.203125 -26.734375 "/></g></g></g><g fill="#df0808" fill-opacity="1"><g transform="translate(261.646045, 183.562591)"><g><path d="M 2.203125 -19.53125 L 9.046875 -19.53125 L 9.046875 0 L 2.203125 0 Z M 5.625 -21.6875 C 4.375 -21.6875 3.363281 -22.035156 2.59375 -22.734375 C 1.832031 -23.429688 1.453125 -24.296875 1.453125 -25.328125 C 1.453125 -26.359375 1.832031 -27.222656 2.59375 -27.921875 C 3.363281 -28.617188 4.375 -28.96875 5.625 -28.96875 C 6.875 -28.96875 7.882812 -28.632812 8.65625 -27.96875 C 9.425781 -27.3125 9.8125 -26.46875 9.8125 -25.4375 C 9.8125 -24.351562 9.425781 -23.457031 8.65625 -22.75 C 7.882812 -22.039062 6.875 -21.6875 5.625 -21.6875 Z M 5.625 -21.6875 "/></g></g></g><g fill="#df0808" fill-opacity="1"><g transform="translate(269.393114, 183.562591)"><g><path d="M 14.59375 0 L 11.09375 -5.109375 L 7.34375 0 L -0.078125 0 L 7.34375 -9.765625 L 0.140625 -19.53125 L 7.859375 -19.53125 L 11.3125 -14.59375 L 14.921875 -19.53125 L 22.15625 -19.53125 L 14.953125 -10.015625 L 22.40625 0 Z M 14.59375 0 "/></g></g></g><g fill="#df0808" fill-opacity="1"><g transform="translate(143.381069, 182.102559)"><g><path d="M 25.09375 -25.234375 L 13.921875 0 L 11.28125 0 L 0.109375 -25.234375 L 2.984375 -25.234375 L 12.65625 -3.3125 L 22.390625 -25.234375 Z M 25.09375 -25.234375 "/></g></g></g><g fill="#df0808" fill-opacity="1"><g transform="translate(165.004977, 182.102559)"><g><path d="M 3.5625 -18.953125 L 6.125 -18.953125 L 6.125 0 L 3.5625 0 Z M 4.875 -23.109375 C 4.34375 -23.109375 3.894531 -23.285156 3.53125 -23.640625 C 3.175781 -24.003906 3 -24.4375 3 -24.9375 C 3 -25.425781 3.175781 -25.847656 3.53125 -26.203125 C 3.894531 -26.566406 4.34375 -26.75 4.875 -26.75 C 5.40625 -26.75 5.847656 -26.570312 6.203125 -26.21875 C 6.566406 -25.875 6.75 -25.460938 6.75 -24.984375 C 6.75 -24.453125 6.566406 -24.003906 6.203125 -23.640625 C 5.847656 -23.285156 5.40625 -23.109375 4.875 -23.109375 Z M 4.875 -23.109375 "/></g></g></g><g fill="#df0808" fill-opacity="1"><g transform="translate(171.167779, 182.102559)"><g><path d="M 20.875 -26.75 L 20.875 0 L 18.421875 0 L 18.421875 -3.75 C 17.648438 -2.476562 16.632812 -1.503906 15.375 -0.828125 C 14.113281 -0.148438 12.691406 0.1875 11.109375 0.1875 C 9.328125 0.1875 7.710938 -0.21875 6.265625 -1.03125 C 4.828125 -1.851562 3.695312 -3 2.875 -4.46875 C 2.0625 -5.9375 1.65625 -7.609375 1.65625 -9.484375 C 1.65625 -11.359375 2.0625 -13.023438 2.875 -14.484375 C 3.695312 -15.953125 4.828125 -17.085938 6.265625 -17.890625 C 7.710938 -18.703125 9.328125 -19.109375 11.109375 -19.109375 C 12.640625 -19.109375 14.023438 -18.785156 15.265625 -18.140625 C 16.503906 -17.503906 17.519531 -16.578125 18.3125 -15.359375 L 18.3125 -26.75 Z M 11.3125 -2.09375 C 12.632812 -2.09375 13.832031 -2.394531 14.90625 -3 C 15.976562 -3.613281 16.816406 -4.484375 17.421875 -5.609375 C 18.035156 -6.742188 18.34375 -8.035156 18.34375 -9.484375 C 18.34375 -10.921875 18.035156 -12.203125 17.421875 -13.328125 C 16.816406 -14.460938 15.976562 -15.335938 14.90625 -15.953125 C 13.832031 -16.566406 12.632812 -16.875 11.3125 -16.875 C 9.96875 -16.875 8.757812 -16.566406 7.6875 -15.953125 C 6.625 -15.335938 5.785156 -14.460938 5.171875 -13.328125 C 4.554688 -12.203125 4.25 -10.921875 4.25 -9.484375 C 4.25 -8.035156 4.554688 -6.742188 5.171875 -5.609375 C 5.785156 -4.484375 6.625 -3.613281 7.6875 -3 C 8.757812 -2.394531 9.96875 -2.09375 11.3125 -2.09375 Z M 11.3125 -2.09375 "/></g></g></g><g fill="#df0808" fill-opacity="1"><g transform="translate(192.070896, 182.102559)"><g><path d="M 20.078125 -8.6875 L 4.21875 -8.6875 C 4.363281 -6.71875 5.117188 -5.125 6.484375 -3.90625 C 7.859375 -2.695312 9.585938 -2.09375 11.671875 -2.09375 C 12.859375 -2.09375 13.941406 -2.300781 14.921875 -2.71875 C 15.910156 -3.144531 16.765625 -3.765625 17.484375 -4.578125 L 18.921875 -2.921875 C 18.078125 -1.910156 17.023438 -1.140625 15.765625 -0.609375 C 14.503906 -0.078125 13.117188 0.1875 11.609375 0.1875 C 9.660156 0.1875 7.9375 -0.226562 6.4375 -1.0625 C 4.9375 -1.894531 3.765625 -3.039062 2.921875 -4.5 C 2.078125 -5.96875 1.65625 -7.628906 1.65625 -9.484375 C 1.65625 -11.328125 2.054688 -12.984375 2.859375 -14.453125 C 3.671875 -15.921875 4.78125 -17.0625 6.1875 -17.875 C 7.59375 -18.695312 9.171875 -19.109375 10.921875 -19.109375 C 12.671875 -19.109375 14.242188 -18.695312 15.640625 -17.875 C 17.035156 -17.0625 18.128906 -15.925781 18.921875 -14.46875 C 19.710938 -13.019531 20.109375 -11.359375 20.109375 -9.484375 Z M 10.921875 -16.90625 C 9.097656 -16.90625 7.566406 -16.320312 6.328125 -15.15625 C 5.085938 -13.988281 4.382812 -12.46875 4.21875 -10.59375 L 17.65625 -10.59375 C 17.488281 -12.46875 16.785156 -13.988281 15.546875 -15.15625 C 14.316406 -16.320312 12.773438 -16.90625 10.921875 -16.90625 Z M 10.921875 -16.90625 "/></g></g></g><g fill="#df0808" fill-opacity="1"><g transform="translate(210.307051, 182.102559)"><g><path d="M 11.3125 0.1875 C 9.488281 0.1875 7.84375 -0.226562 6.375 -1.0625 C 4.914062 -1.894531 3.765625 -3.039062 2.921875 -4.5 C 2.078125 -5.96875 1.65625 -7.628906 1.65625 -9.484375 C 1.65625 -11.328125 2.078125 -12.984375 2.921875 -14.453125 C 3.765625 -15.921875 4.914062 -17.0625 6.375 -17.875 C 7.84375 -18.695312 9.488281 -19.109375 11.3125 -19.109375 C 13.144531 -19.109375 14.789062 -18.695312 16.25 -17.875 C 17.71875 -17.0625 18.863281 -15.921875 19.6875 -14.453125 C 20.519531 -12.984375 20.9375 -11.328125 20.9375 -9.484375 C 20.9375 -7.628906 20.519531 -5.96875 19.6875 -4.5 C 18.863281 -3.039062 17.71875 -1.894531 16.25 -1.0625 C 14.789062 -0.226562 13.144531 0.1875 11.3125 0.1875 Z M 11.3125 -2.09375 C 12.664062 -2.09375 13.875 -2.394531 14.9375 -3 C 16.007812 -3.613281 16.84375 -4.484375 17.4375 -5.609375 C 18.039062 -6.742188 18.34375 -8.035156 18.34375 -9.484375 C 18.34375 -10.921875 18.039062 -12.203125 17.4375 -13.328125 C 16.84375 -14.460938 16.007812 -15.335938 14.9375 -15.953125 C 13.875 -16.566406 12.664062 -16.875 11.3125 -16.875 C 9.96875 -16.875 8.757812 -16.566406 7.6875 -15.953125 C 6.625 -15.335938 5.785156 -14.460938 5.171875 -13.328125 C 4.554688 -12.203125 4.25 -10.921875 4.25 -9.484375 C 4.25 -8.035156 4.554688 -6.742188 5.171875 -5.609375 C 5.785156 -4.484375 6.625 -3.613281 7.6875 -3 C 8.757812 -2.394531 9.96875 -2.09375 11.3125 -2.09375 Z M 11.3125 -2.09375 "/></g></g></g><g fill="#df0808" fill-opacity="1"><g transform="translate(229.374867, 182.102559)"><g/></g></g></svg>